<svg id="Layer_1" data-name="Layer 1" xmlns="http://www.w3.org/2000/svg" viewBox="0 0 1080 1080"><defs><style>.cls-1{fill:#ccde69;}.cls-2{fill:#d2eced;}.cls-3{fill:#fff;}.cls-4{fill:#ef4770;}.cls-5{fill:#f8f5fa;}.cls-6,.cls-7,.cls-8{fill:#5f3b97;}.cls-7{font-size:29px;}.cls-7,.cls-8{font-family:Poppins-Regular, Poppins;}.cls-8{font-size:20px;}</style></defs><path class="cls-1" d="M237.84,771.87S339.72,528.93,376.23,551.39,499,771.87,499,771.87Z"/><path class="cls-1" d="M392.31,769.06S527.92,495.44,576.53,520.75,739.94,769.06,739.94,769.06Z"/><path class="cls-1" d="M866.32,771.87S773.19,539.29,739.81,560.8,627.59,771.87,627.59,771.87Z"/><rect class="cls-2" x="523.68" y="485.39" width="16.85" height="283.66"/><rect class="cls-3" x="515.25" y="485.39" width="14.04" height="283.66"/><path class="cls-4" d="M563.36,243.86H495.23A41.31,41.31,0,0,0,466,256l-48.17,48.17a41.31,41.31,0,0,0-12.11,29.23V401.5a41.31,41.31,0,0,0,12.11,29.23L466,478.9A41.35,41.35,0,0,0,495.23,491h68.13a41.31,41.31,0,0,0,29.23-12.11l48.17-48.17a41.35,41.35,0,0,0,12.11-29.23V333.37a41.35,41.35,0,0,0-12.11-29.23L592.59,256A41.31,41.31,0,0,0,563.36,243.86Z"/><path class="cls-5" d="M499.15,374.41q.74,0,.74,5.55c0,3.7-.25,5.56-.74,5.56l-4.85.07v9.27c0,.54-1,.93-3,1.17a43,43,0,0,1-5.22.37l-3-.14c-2.51-.2-3.76-.64-3.76-1.33v-9.12H464.65a19.67,19.67,0,0,1-3.46-5,11.82,11.82,0,0,1-1.54-4.41,4.59,4.59,0,0,1,.44-2.17l16.11-28.54c.19-.4,1.7-.69,4.52-.88s5.78-.3,8.86-.3,4.64.12,4.64.37l.07,29.49h4.86Zm-17.73.07V359.11l-8.6,15.37Z"/><path class="cls-5" d="M526.4,397.14a19,19,0,0,1-15.08-6.77q-5.85-6.76-5.85-19.79t5.89-19.67a19.32,19.32,0,0,1,15.19-6.66,19,19,0,0,1,15,6.62q5.73,6.61,5.74,19.94t-5.85,19.82A19.35,19.35,0,0,1,526.4,397.14Zm0-38.77q-2.83,0-4.78,3.2c-1.3,2.14-2,5.16-2,9.09s.63,6.92,1.88,9,2.87,3.12,4.85,3.12,3.61-1.05,4.86-3.16,1.87-5.12,1.87-9.05-.65-6.93-2-9S528.29,358.37,526.4,358.37Z"/><path class="cls-5" d="M590.14,374.41q.74,0,.73,5.55c0,3.7-.24,5.56-.73,5.56l-4.85.07v9.27c0,.54-1,.93-3,1.17a43,43,0,0,1-5.22.37l-3-.14c-2.5-.2-3.75-.64-3.75-1.33v-9.12H555.64a19.4,19.4,0,0,1-3.45-5,11.7,11.7,0,0,1-1.55-4.41,4.59,4.59,0,0,1,.44-2.17l16.11-28.54c.2-.4,1.7-.69,4.52-.88s5.78-.3,8.87-.3,4.63.12,4.63.37l.07,29.49h4.86Zm-17.73.07V359.11l-8.6,15.37Z"/><path class="cls-6" d="M557.38,776.08h-64.6a4.22,4.22,0,0,1,0-8.43h64.6a4.22,4.22,0,0,1,0,8.43Z"/><path class="cls-6" d="M459.08,776.08h-98.3a4.22,4.22,0,0,1,0-8.43h98.3a4.22,4.22,0,0,1,0,8.43Z"/><path class="cls-6" d="M324.27,776.08H220.35a4.22,4.22,0,0,1,0-8.43H324.27a4.22,4.22,0,0,1,0,8.43Z"/><path class="cls-6" d="M866.32,776.08H588.27a4.22,4.22,0,0,1,0-8.43H866.32a4.22,4.22,0,0,1,0,8.43Z"/><path class="cls-6" d="M541.93,773.27a4.21,4.21,0,0,1-4.21-4.21V486.8a4.22,4.22,0,1,1,8.43,0V769.06A4.22,4.22,0,0,1,541.93,773.27Z"/><path class="cls-6" d="M511,773.27a4.21,4.21,0,0,1-4.21-4.21V486.8a4.21,4.21,0,1,1,8.42,0V769.06A4.22,4.22,0,0,1,511,773.27Z"/><path class="cls-6" d="M566.26,489.61H481.09a19.24,19.24,0,0,1-13.69-5.68l-60.22-60.22A19.24,19.24,0,0,1,401.5,410V324.85a19.24,19.24,0,0,1,5.68-13.69l60.22-60.23a19.27,19.27,0,0,1,13.69-5.67h85.17A19.23,19.23,0,0,1,580,250.93l60.23,60.23a19.23,19.23,0,0,1,5.67,13.69V410a19.23,19.23,0,0,1-5.67,13.7L580,483.93A19.22,19.22,0,0,1,566.26,489.61ZM481.09,253.69a10.83,10.83,0,0,0-7.73,3.2l-60.23,60.22a10.91,10.91,0,0,0-3.2,7.74V410a10.86,10.86,0,0,0,3.21,7.74L473.36,478a10.84,10.84,0,0,0,7.73,3.21h85.17A11,11,0,0,0,574,478l60.22-60.22a10.89,10.89,0,0,0,3.2-7.74V324.85a10.87,10.87,0,0,0-3.2-7.74L574,256.89a11,11,0,0,0-7.73-3.2Z"/><path class="cls-6" d="M547.68,458.71h-48A33.15,33.15,0,0,1,476.1,449L442.16,415a33.11,33.11,0,0,1-9.76-23.58v-48a33.11,33.11,0,0,1,9.76-23.57l33.94-33.94a33.12,33.12,0,0,1,23.57-9.77h48a33.12,33.12,0,0,1,23.57,9.77l33.94,33.94A33.11,33.11,0,0,1,615,343.43v48A33.11,33.11,0,0,1,605.19,415L571.25,449A33.15,33.15,0,0,1,547.68,458.71Zm-48-174.13a24.72,24.72,0,0,0-17.61,7.3l-33.94,33.94a24.72,24.72,0,0,0-7.3,17.61v48a24.74,24.74,0,0,0,7.3,17.62L482.06,443a24.76,24.76,0,0,0,17.61,7.3h48a24.74,24.74,0,0,0,17.62-7.3l33.94-33.94a24.77,24.77,0,0,0,7.29-17.62v-48a24.77,24.77,0,0,0-7.29-17.61l-33.94-33.94a24.78,24.78,0,0,0-17.62-7.3Z"/><path class="cls-3" d="M428.35,322.67l25.41-25.41c8.13-8.12,16.09-18.61,25.4-25.4,10.84-7.9,30.39-4.13,42.69-4.13h38.34c5.42,0,5.43-8.42,0-8.42H519.07c-11.49,0-28.12-2.93-39.07,2s-20.14,18-28.31,26.14l-29.3,29.29c-3.83,3.84,2.13,9.8,6,6Z"/><path class="cls-3" d="M513.84,474.16a4.21,4.21,0,0,1-.22-8.42l40.24-2.12a33,33,0,0,0,20.3-8.41l18.32-16.48a4.21,4.21,0,1,1,5.63,6.26L579.8,461.48A41.55,41.55,0,0,1,554.31,472l-40.24,2.11Z"/><path class="cls-3" d="M527.39,445.91a2.81,2.81,0,0,1-.16-5.62l24.59-1.42a2.75,2.75,0,0,0,1.48-.54l17.35-12.93a2.81,2.81,0,1,1,3.35,4.5l-17.35,12.93a8.36,8.36,0,0,1-4.51,1.65l-24.59,1.42Z"/><path class="cls-3" d="M521,443a2.85,2.85,0,1,1-2.85-2.85A2.85,2.85,0,0,1,521,443Z"/><path class="cls-2" d="M324.2,280.37H32.65a18.32,18.32,0,0,1-18.26-18.26h0a18.31,18.31,0,0,1,18.26-18.25H324.2a18.3,18.3,0,0,1,18.25,18.25h0A18.31,18.31,0,0,1,324.2,280.37Z"/><path class="cls-2" d="M394.72,256.44H103.16a18.3,18.3,0,0,1-18.25-18.25h0a18.31,18.31,0,0,1,18.25-18.26H394.72A18.31,18.31,0,0,1,413,238.19h0A18.3,18.3,0,0,1,394.72,256.44Z"/><path class="cls-2" d="M313.51,219.93H137.1a18.31,18.31,0,0,1-18.26-18.25h0a18.32,18.32,0,0,1,18.26-18.26H313.51a18.32,18.32,0,0,1,18.26,18.26h0A18.31,18.31,0,0,1,313.51,219.93Z"/><path class="cls-2" d="M296.62,306.63H72.15A16.2,16.2,0,0,1,56,290.48v-4.21a16.2,16.2,0,0,1,16.16-16.15H296.62a16.2,16.2,0,0,1,16.15,16.15v4.21A16.19,16.19,0,0,1,296.62,306.63Z"/><path class="cls-2" d="M976.84,452.63H685.28A18.31,18.31,0,0,1,667,434.37h0a18.31,18.31,0,0,1,18.25-18.26H976.84a18.31,18.31,0,0,1,18.25,18.26h0A18.31,18.31,0,0,1,976.84,452.63Z"/><path class="cls-2" d="M1047.35,428.7H755.8a18.31,18.31,0,0,1-18.25-18.26h0a18.3,18.3,0,0,1,18.25-18.25h291.55a18.31,18.31,0,0,1,18.26,18.25h0A18.32,18.32,0,0,1,1047.35,428.7Z"/><path class="cls-2" d="M283.65,557.51h-169a18.32,18.32,0,0,1-18.26-18.26h0A18.32,18.32,0,0,1,114.62,521h169a18.31,18.31,0,0,1,18.25,18.26h0A18.31,18.31,0,0,1,283.65,557.51Z"/><path class="cls-2" d="M234.26,591.41h-169A18.32,18.32,0,0,1,47,573.15h0A18.31,18.31,0,0,1,65.23,554.9h169a18.3,18.3,0,0,1,18.25,18.25h0A18.31,18.31,0,0,1,234.26,591.41Z"/><path class="cls-2" d="M874.4,402.18H698a18.32,18.32,0,0,1-18.26-18.26h0A18.31,18.31,0,0,1,698,365.67H874.4a18.31,18.31,0,0,1,18.26,18.25h0A18.32,18.32,0,0,1,874.4,402.18Z"/><path class="cls-2" d="M1013.81,478.89H789.34a16.19,16.19,0,0,1-16.15-16.15v-4.21a16.2,16.2,0,0,1,16.15-16.15h224.47A16.2,16.2,0,0,1,1030,458.53v4.21A16.2,16.2,0,0,1,1013.81,478.89Z"/><text class="cls-7" transform="translate(228.41 833.26)">Please enable JavaScript and try out again</text><text class="cls-8" transform="translate(410.36 885.14)">~ Gokulsundar Sundararaj</text></svg>