<?xml version="1.0" encoding="utf-8"?>
<!-- Generator: Adobe Illustrator 25.2.0, SVG Export Plug-In . SVG Version: 6.00 Build 0)  -->
<svg version="1.1" id="Layer_1" xmlns="http://www.w3.org/2000/svg" xmlns:xlink="http://www.w3.org/1999/xlink" x="0px" y="0px"
	 viewBox="0 0 500 500" style="enable-background:new 0 0 500 500;" xml:space="preserve">
<style type="text/css">
	.st0{fill:#FFFFFF;}
	.st1{fill:#405B91;}
	.st2{font-family:'Poppins-Bold';}
	.st3{font-size:19px;}
	.st4{font-family:'Poppins-Light';}
	.st5{font-size:16px;}
	.st6{fill:#6CDD6C;}
	.st7{fill:#50AA50;}
	.st8{fill:#415B91;}
	.st9{fill-rule:evenodd;clip-rule:evenodd;fill:#B6D0FB;}
	.st10{fill:#B6D0FB;}
	.st11{fill:#3F5B91;}
	.st12{fill:#D7E7FF;}
	.st13{font-size:13px;}
</style>
<g id="BACKGROUND">
	<rect class="st0" width="500" height="500"/>
</g>
<g id="OBJECTS">
	<text transform="matrix(1 0 0 1 133.21 387.85)" class="st1 st2 st3">Site Under Maintenance</text>
	<text transform="matrix(1 0 0 1 178.87 418.85)" class="st1 st4 st5">Will be Back Soon!</text>
	<path class="st6" d="M317.7,333.9c-0.5-1.8-1.8-3.3-3.5-4c-1.8-0.6-3.8,0.3-4.5,2.1c-1.6-1.4-4.1-0.3-5.4,1.4
		c-2.1,2.7-0.5,7.1-0.1,7.4c0.4,0.2,0.9,0.3,1.4,0.2l15.7-0.1c1.4-0.1,2.8-0.3,4.2-0.7c2.7-1.1,4.5-5.7,2.8-8
		c-1.2-1.6-3.5-1.9-5.4-1.3C320.9,331.5,319.2,332.6,317.7,333.9"/>
	<path class="st7" d="M305.3,341.5c-0.5,0-1.1-0.1-1.5-0.4c-0.6-0.5-2.2-5.2,0-8.1c0.9-1.2,2.2-2,3.7-2.2c0.7-0.1,1.3,0,1.9,0.3
		c0.4-0.6,0.9-1.1,1.5-1.5c1-0.5,2.3-0.6,3.4-0.3c1.7,0.6,3,1.9,3.6,3.6c1.4-1.2,3-2.1,4.8-2.7c1.9-0.6,4.5-0.4,5.9,1.5
		c0.8,1.3,1,2.9,0.5,4.4c-0.5,1.9-1.8,3.5-3.5,4.4c-1.4,0.4-2.9,0.7-4.4,0.8l-15.7,0.1L305.3,341.5z M307.9,331.9
		c-0.1,0-0.2,0-0.3,0c-1.2,0.2-2.3,0.8-3,1.8c-1.8,2.4-0.5,6.3-0.2,6.7c0.3,0.1,0.7,0.1,1,0.1l15.7-0.1c1.4-0.1,2.7-0.3,4-0.7
		c1.5-0.8,2.5-2.1,2.9-3.7c0.4-1.2,0.3-2.4-0.4-3.5c-1.1-1.5-3.2-1.6-4.8-1.1c-1.9,0.7-3.6,1.7-5,3c-0.1,0.1-0.3,0.2-0.5,0.1
		c-0.2,0-0.3-0.2-0.4-0.4c-0.4-1.7-1.6-3-3.2-3.6c-0.9-0.3-1.8-0.2-2.6,0.2c-0.6,0.3-1.1,0.8-1.3,1.5c-0.1,0.2-0.2,0.3-0.3,0.3
		c-0.2,0-0.3,0-0.5-0.1C308.8,332.1,308.4,331.9,307.9,331.9z"/>
	<path class="st7" d="M301.1,333.3c-0.5,0.9-0.6,1.8-0.5,2.8c0,0.5,0.8,0.5,0.8,0c-0.1-0.8,0-1.7,0.4-2.4
		C302,333.2,301.4,332.8,301.1,333.3z"/>
	<path class="st7" d="M298.9,333.9c-0.2,0.9-0.3,1.8-0.1,2.6c0.1,0.5,0.9,0.3,0.8-0.2c-0.2-0.7-0.1-1.5,0.1-2.2
		c0-0.2-0.1-0.4-0.3-0.5C299.1,333.6,298.9,333.7,298.9,333.9z"/>
	<path class="st7" d="M303.2,332.3c0.2,0,0.4-0.2,0.4-0.4c0-0.2-0.2-0.4-0.4-0.4c-0.2,0-0.4,0.2-0.4,0.4
		C302.9,332.2,303,332.3,303.2,332.3z"/>
	<path class="st7" d="M305.4,336.1v0.7c0,0.2,0.2,0.4,0.4,0.4c0.2,0,0.4-0.2,0.4-0.4v-0.7c0-0.2-0.2-0.4-0.4-0.4
		C305.6,335.7,305.4,335.9,305.4,336.1z"/>
	<path class="st7" d="M318.6,337.3v0.4c0,0.2,0.2,0.4,0.4,0.3c0.2,0,0.3-0.2,0.3-0.3v-0.4c0-0.2-0.2-0.4-0.4-0.3
		C318.7,337,318.6,337.1,318.6,337.3z"/>
	<path class="st7" d="M317.1,336.4l0.2,0.2c0.2,0.1,0.4,0.1,0.5,0c0.1-0.1,0.1-0.4,0-0.5l-0.2-0.2
		C317.3,335.5,316.8,336,317.1,336.4z"/>
	<path class="st1" d="M96.1,319.2H69.8c-0.6,0-1-0.5-1-1s0.5-1,1-1h26.3c0.6,0,1,0.5,1,1S96.7,319.2,96.1,319.2z"/>
	<path class="st0" d="M328,227.9h-0.8c0-0.6-0.5-1.1-1.1-1.1s-1.1,0.5-1.1,1.1h-0.8c0-1,0.8-1.9,1.9-1.9S328,226.9,328,227.9
		L328,227.9z"/>
	<path class="st0" d="M330.6,184.1h-0.8c0-0.6-0.5-1.1-1.1-1.1s-1.1,0.5-1.1,1.1h-0.8c0-1,0.8-1.9,1.9-1.9S330.6,183.1,330.6,184.1z
		"/>
	<path class="st8" d="M237,336.3h-35.7l0.6-1.4c2.4-5.6,2.6-10.3,2.2-15.8L204,318l30.2-0.1v1c0.2,5.4,1,10.8,2.4,16L237,336.3z
		 M204.3,334.2h29.9c-1.1-4.7-1.8-9.5-2.1-14.3l-25.9,0.1C206.6,324.8,206,329.7,204.3,334.2L204.3,334.2z"/>
	<path class="st8" d="M191,319.9c-27.2,0-49.2-0.1-50.1-0.5c-2.3-0.8-5.4-4-5.4-6.3c-0.1-5-0.3-11.7-0.6-19.5
		c-0.7-23.5-1.8-55.8-0.4-73.6c0.2-3.2,2.9-5.7,6.1-5.8h0.1l156.6,0.2c3.3,0.1,6,2.8,6,6.1c0.1,5.2,0.3,10.5,0.5,15.9
		c0.7,22.6,1.5,46-1,68.1c-0.1,0.9-0.1,1.8-0.2,2.8c-0.2,4.6-0.5,10.4-6.5,11.6C293.2,319.5,235.2,319.9,191,319.9z M140.6,215.9
		c-2.4,0-4.3,1.9-4.5,4.2c-1.3,17.8-0.3,49.9,0.4,73.4c0.2,7.8,0.5,14.6,0.6,19.5c0,1.5,2.4,4.1,4.3,4.8
		c3.3,0.7,150.6,0.2,154.4-0.5c4.7-0.9,4.9-5.5,5.1-10c0-1,0.1-2,0.2-2.9c2.5-22,1.8-45.3,1-67.8c-0.2-5.4-0.3-10.7-0.5-15.9
		c0-2.4-2-4.4-4.4-4.5L140.6,215.9L140.6,215.9z"/>
	<path class="st9" d="M292.9,219.9l-147.6-0.2c-2.5-0.2-4.7,1.7-5.1,4.2c-1.6,19.8,0.6,61,0.9,77.6c0,1.6,2.7,4,4.6,4.6
		c2.2,0.7,142.5,0.2,145.9-0.4c6.1-1.1,5.1-7.4,5.6-11.4c2.9-22.8,1.1-47.6,0.5-69.9C297.6,221.7,295.5,219.8,292.9,219.9z"/>
	<path class="st8" d="M249.9,342h-61.4c-2.1,0-3.8-1.7-3.8-3.8c0-2.1,1.7-3.8,3.8-3.8h61.4c2.1,0,3.8,1.7,3.8,3.8
		C253.7,340.3,252,342,249.9,342z M188.4,336c-1.2,0.1-2.1,1.1-2,2.3c0.1,1.1,0.9,1.9,2,2h61.4c1.2-0.1,2.1-1.1,2-2.3
		c-0.1-1.1-0.9-1.9-2-2H188.4z"/>
	<path class="st8" d="M145.7,314.1c2.8,0,2.8-4.3,0-4.3S142.9,314.1,145.7,314.1z"/>
	<path class="st8" d="M154.3,314.1c2.8,0,2.8-4.3,0-4.3S151.6,314.1,154.3,314.1z"/>
	<path class="st8" d="M163,314.1c2.8,0,2.8-4.3,0-4.3S160.2,314.1,163,314.1z"/>
	<path class="st8" d="M219.1,218.6c0.6,0,1-0.4,1-1s-0.4-1-1-1s-1,0.4-1,1S218.6,218.6,219.1,218.6z"/>
	<polygon class="st10" points="392.3,337.9 371.2,337.9 379.3,311.1 384.2,311.1 	"/>
	<rect x="369.4" y="337.9" class="st10" width="24.6" height="3"/>
	<polygon class="st8" points="373.2,331.2 371.2,337.9 392.3,337.9 390.3,331.2 	"/>
	<polygon class="st8" points="375.2,324.5 388.2,324.5 386.2,317.8 377.3,317.8 	"/>
	<path class="st10" d="M401,340.8h4.7v-18.2h24.1v18.2h4.7v-18.2h5v-14.5h-4v-1.4h-6.8v1.4h-21.4v-1.4h-6.8v1.4h-4.4v14.5h4.9V340.8
		z M437.9,309.6L437.9,309.6l-2.9,11.5h-5.2l2.9-11.5H437.9z M424.5,321.1h-5.2l2.9-11.5h5.2L424.5,321.1z M413.9,321.1h-5.2
		l2.9-11.5h5.2L413.9,321.1z M401,309.6h5.2l-2.9,11.5h-5.2L401,309.6z"/>
	<path class="st10" d="M170.1,163.1l1.4-1.4c0.3-0.3,0.3-0.7,0-1l-1.2-1.2c-0.3-0.3-0.4-0.8-0.2-1.2l1-2.4c0.1-0.4,0.5-0.7,0.9-0.7
		h1.7c0.4,0,0.7-0.3,0.7-0.7v-2c0-0.4-0.3-0.7-0.7-0.7H172c-0.4,0-0.8-0.3-0.9-0.7l-1-2.4c-0.2-0.4-0.1-0.9,0.2-1.2l1.2-1.2
		c0.3-0.3,0.3-0.7,0-1l-1.4-1.4c-0.3-0.3-0.7-0.3-1,0l-1.2,1.2c-0.3,0.3-0.8,0.4-1.2,0.2l-2.4-1c-0.4-0.1-0.7-0.5-0.7-0.9v-1.7
		c0-0.4-0.3-0.7-0.7-0.7h-2c-0.4,0-0.7,0.3-0.7,0.7v1.7c0,0.4-0.3,0.8-0.7,0.9l-2.4,1c-0.4,0.2-0.9,0.1-1.2-0.2l-1.2-1.2
		c-0.3-0.3-0.7-0.3-1,0l-1.4,1.4c-0.3,0.3-0.3,0.7,0,1l1.2,1.2c0.3,0.3,0.4,0.8,0.2,1.2l-1,2.4c-0.1,0.4-0.5,0.7-0.9,0.7h-1.7
		c-0.4,0-0.7,0.3-0.7,0.7v2c0,0.4,0.3,0.7,0.7,0.7h1.7c0.4,0,0.8,0.3,0.9,0.7l1,2.4c0.2,0.4,0.1,0.9-0.2,1.2l-1.2,1.2
		c-0.3,0.3-0.3,0.7,0,1l1.4,1.4c0.3,0.3,0.7,0.3,1,0l1.2-1.2c0.3-0.3,0.8-0.4,1.2-0.2l2.4,1c0.4,0.1,0.7,0.5,0.7,0.9v1.7
		c0,0.4,0.3,0.7,0.7,0.7h2c0.4,0,0.7-0.3,0.7-0.7v-1.7c0-0.4,0.3-0.8,0.7-0.9l2.4-1c0.4-0.2,0.9-0.1,1.2,0.2l1.2,1.2
		C169.3,163.3,169.8,163.3,170.1,163.1z M161.8,159.2c-3.2,0-5.8-2.6-5.8-5.8s2.6-5.8,5.8-5.8s5.8,2.6,5.8,5.8
		C167.6,156.6,165,159.2,161.8,159.2z"/>
	<path class="st10" d="M183.5,168.6l-0.4-1.2c-0.1-0.2-0.3-0.4-0.6-0.3c0,0,0,0,0,0l-1,0.3c-0.3,0.1-0.5,0-0.7-0.2l-1-1.3
		c-0.2-0.2-0.2-0.5-0.1-0.7l0.5-0.9c0.1-0.2,0-0.5-0.2-0.6L179,163c-0.2-0.1-0.5,0-0.6,0.2c0,0,0,0,0,0l-0.5,1
		c-0.1,0.2-0.4,0.3-0.7,0.3l-1.6-0.2c-0.3,0-0.5-0.2-0.6-0.4l-0.3-1c-0.1-0.2-0.3-0.4-0.6-0.3L173,163c-0.2,0.1-0.4,0.3-0.3,0.5
		c0,0,0,0,0,0l0.3,1c0.1,0.3,0,0.5-0.2,0.7l-1.3,1c-0.2,0.2-0.5,0.2-0.7,0.1l-0.9-0.5c-0.2-0.1-0.5,0-0.6,0.2c0,0,0,0,0,0l-0.6,1.1
		c-0.1,0.2,0,0.5,0.2,0.6l0.9,0.5c0.2,0.1,0.3,0.4,0.3,0.6l-0.2,1.6c0,0.3-0.2,0.5-0.4,0.6l-1,0.3c-0.2,0.1-0.4,0.3-0.3,0.6l0.4,1.2
		c0.1,0.2,0.3,0.4,0.6,0.3l1-0.3c0.3-0.1,0.5,0,0.7,0.2l1,1.2c0.2,0.2,0.2,0.5,0.1,0.7l-0.5,0.9c-0.1,0.2,0,0.5,0.2,0.6c0,0,0,0,0,0
		l1.1,0.6c0.2,0.1,0.5,0,0.6-0.2l0.5-1c0.1-0.2,0.4-0.3,0.7-0.3l1.6,0.2c0.3,0,0.5,0.2,0.6,0.4l0.3,1c0.1,0.2,0.3,0.4,0.5,0.3
		c0,0,0,0,0,0l1.2-0.4c0.2-0.1,0.4-0.3,0.3-0.6l-0.3-1c-0.1-0.3,0-0.5,0.2-0.7l1.3-1c0.2-0.2,0.5-0.2,0.7-0.1l0.9,0.5
		c0.2,0.1,0.5,0,0.6-0.2l0.6-1.1c0.1-0.2,0-0.5-0.2-0.6c0,0,0,0,0,0l-0.9-0.5c-0.2-0.1-0.3-0.4-0.3-0.6l0.2-1.6
		c0-0.3,0.2-0.5,0.4-0.6l1-0.3C183.4,169.1,183.6,168.8,183.5,168.6C183.5,168.6,183.5,168.6,183.5,168.6z M179,171.9
		c-0.9,1.8-3.1,2.4-4.9,1.5c-1.8-0.9-2.4-3.1-1.5-4.9s3.1-2.4,4.9-1.5c0,0,0,0,0,0C179.3,168,179.9,170.2,179,171.9
		C179,171.9,179,171.9,179,171.9z"/>
	<path class="st1" d="M242.4,191.3h-32.6c-0.6,0-1-0.5-1-1s0.5-1,1-1h32.6c0.6,0,1,0.5,1,1S243,191.3,242.4,191.3L242.4,191.3z"/>
	<path class="st1" d="M176,206.1h-52.6c-0.6,0-1-0.5-1-1c0-0.6,0.5-1,1-1H176c0.6,0,1,0.5,1,1C177,205.7,176.6,206.1,176,206.1z"/>
	<path class="st1" d="M428.5,234.2h-52.7c-0.6,0-1-0.5-1-1c0-0.6,0.5-1,1-1h52.7c0.6,0,1,0.5,1,1
		C429.5,233.7,429.1,234.2,428.5,234.2z"/>
	<path class="st1" d="M449.2,343H50.8c-0.6,0-1-0.5-1-1c0-0.6,0.5-1,1-1h398.4c0.6,0,1,0.5,1,1C450.2,342.5,449.8,343,449.2,343z"/>
	<path class="st10" d="M303.1,178.3c-4.6,0-8.4,3.8-8.4,8.4c0,1.5,0.4,2.9,1.1,4.2l0.1,0.2l-8.5,8.5c-0.3,0.3-0.4,0.6-0.4,1
		c0,0.5,0.3,1,0.6,1.3c0.4,0.4,0.9,0.7,1.4,0.7c0.4,0,0.7-0.1,1-0.3l8.5-8.4l0.2,0.1c4,2.3,9.1,1,11.5-3c2.3-4,1-9.1-3-11.5
		C306,178.7,304.6,178.3,303.1,178.3L303.1,178.3z M303.1,192.6c-3.2,0-5.9-2.6-5.9-5.9c0-3.2,2.6-5.9,5.9-5.9c0,0,0,0,0,0l0,0
		c3.2,0,5.9,2.6,5.9,5.9C308.9,189.9,306.3,192.5,303.1,192.6z"/>
	<path class="st10" d="M300,187.9h6v-1.6h-6V187.9z"/>
	<path class="st1" d="M147.8,341.1c-0.6,0-1-0.4-1-1v-79.9c0-0.6,0.5-1,1-1c0.6,0,1,0.5,1,1V340c0,0.6-0.4,1-0.9,1.1
		C147.9,341.1,147.8,341.1,147.8,341.1z"/>
	<path class="st1" d="M166.3,341.1c-0.6,0-1-0.4-1-1v-79.9c0-0.6,0.5-1,1-1c0.6,0,1,0.5,1,1V340c0,0.6-0.4,1-0.9,1.1
		C166.4,341.1,166.4,341.1,166.3,341.1z"/>
	<path class="st1" d="M166.3,266.6h-18.6c-0.6,0-1-0.5-1-1s0.5-1,1-1h18.6c0.6,0,1,0.5,1,1S166.9,266.6,166.3,266.6z"/>
	<path class="st1" d="M166.3,275.8h-18.6c-0.6,0-1-0.5-1-1c0-0.6,0.5-1,1-1h18.6c0.6,0,1,0.5,1,1
		C167.3,275.3,166.9,275.8,166.3,275.8z"/>
	<path class="st1" d="M166.3,284.9h-18.6c-0.6,0-1-0.5-1-1s0.5-1,1-1h18.6c0.6,0,1,0.5,1,1S166.9,284.9,166.3,284.9z"/>
	<path class="st1" d="M166.3,294h-18.6c-0.6,0-1-0.5-1-1c0-0.6,0.5-1,1-1h18.6c0.6,0,1,0.5,1,1C167.3,293.5,166.9,294,166.3,294z"/>
	<path class="st1" d="M166.3,303.1h-18.6c-0.6,0-1-0.5-1-1s0.5-1,1-1h18.6c0.6,0,1,0.5,1,1S166.9,303.1,166.3,303.1z"/>
	<path class="st1" d="M166.3,312.3h-18.6c-0.6,0-1-0.5-1-1c0-0.6,0.5-1,1-1h18.6c0.6,0,1,0.5,1,1
		C167.3,311.8,166.9,312.3,166.3,312.3z"/>
	<path class="st1" d="M166.3,321.4h-18.6c-0.6,0-1-0.5-1-1s0.5-1,1-1h18.6c0.6,0,1,0.5,1,1S166.9,321.4,166.3,321.4z"/>
	<path class="st1" d="M166.3,330.5h-18.6c-0.6,0-1-0.5-1-1c0-0.6,0.5-1,1-1h18.6c0.6,0,1,0.5,1,1
		C167.3,330.1,166.9,330.5,166.3,330.5z"/>
	<path class="st1" d="M122.5,264c-0.6,0-1-0.4-1-1v-4c0-0.6,0.5-1,1-1s1,0.5,1,1v4C123.6,263.6,123.1,264,122.5,264
		C122.5,264,122.5,264,122.5,264z"/>
	<path class="st1" d="M124.5,262h-4c-0.6,0-1-0.5-1-1s0.5-1,1-1h4c0.6,0,1,0.5,1,1S125.1,262,124.5,262z"/>
	<path class="st1" d="M215.7,119.6c-0.6,0-1-0.4-1-1v-4c0-0.6,0.5-1,1-1s1,0.5,1,1v4C216.8,119.2,216.4,119.6,215.7,119.6
		C215.8,119.6,215.8,119.6,215.7,119.6z"/>
	<path class="st1" d="M217.8,117.6h-4c-0.6,0-1-0.5-1-1s0.5-1,1-1l0,0h4c0.6,0,1,0.5,1,1S218.3,117.6,217.8,117.6z"/>
	<path class="st1" d="M248.4,328.7c-0.1,0-0.2,0-0.3,0l-3.9-1.1c-0.5-0.1-0.9-0.7-0.7-1.2c0,0,0,0,0-0.1c0.1-0.5,0.7-0.9,1.2-0.7
		c0,0,0,0,0.1,0l3.9,1.1c0.6,0.1,0.9,0.6,0.9,1.1C249.5,328.4,249,328.7,248.4,328.7L248.4,328.7z"/>
	<path class="st1" d="M245.9,330c-0.1,0-0.2,0-0.3,0c-0.5-0.1-0.9-0.7-0.7-1.2c0,0,0,0,0-0.1l1.1-3.9c0.2-0.6,0.7-0.9,1.3-0.7
		s0.9,0.7,0.7,1.3l0,0l-1.1,3.9C246.8,329.8,246.4,330.1,245.9,330z"/>
	<path class="st1" d="M228,206.7c-0.1,0-0.2,0-0.3,0l-3.9-1.1c-0.6-0.2-0.9-0.7-0.7-1.3s0.7-0.9,1.3-0.7l3.9,1.1
		c0.6,0.1,0.9,0.6,0.9,1.1S228.6,206.8,228,206.7L228,206.7z"/>
	<path class="st1" d="M225.5,208.1c-0.1,0-0.2,0-0.3,0c-0.5-0.1-0.9-0.7-0.7-1.2c0,0,0,0,0-0.1l1.1-3.9c0.2-0.6,0.7-0.9,1.3-0.7
		s0.9,0.7,0.7,1.3l0,0l-1.1,3.9C226.4,207.8,226,208.1,225.5,208.1z"/>
	<circle class="st10" cx="225.3" cy="168.5" r="14.4"/>
	<circle class="st0" cx="225.3" cy="168.5" r="10.8"/>
	<path class="st1" d="M225.3,179.7c-6.2,0-11.2-5-11.2-11.2s5-11.2,11.2-11.2c6.2,0,11.2,5,11.2,11.2
		C236.5,174.7,231.5,179.7,225.3,179.7z M225.3,158.1c-5.7,0-10.4,4.6-10.4,10.4c0,5.7,4.6,10.4,10.4,10.4c5.7,0,10.4-4.6,10.4-10.4
		c0,0,0,0,0,0C235.7,162.7,231,158.1,225.3,158.1L225.3,158.1z"/>
	<path class="st1" d="M225.3,168.9c-0.2,0-0.4-0.2-0.4-0.4V163c0-0.2,0.2-0.4,0.4-0.4c0.2,0,0.4,0.2,0.4,0.4v5.5
		C225.7,168.7,225.5,168.9,225.3,168.9z"/>
	<path class="st1" d="M231.8,168.9h-6.4c-0.2,0-0.4-0.2-0.4-0.4c0-0.2,0.2-0.4,0.4-0.4c0,0,0,0,0,0h6.4c0.2,0,0.4,0.2,0.4,0.4
		c0,0,0,0,0,0C232.2,168.7,232,168.9,231.8,168.9z"/>
	<path class="st1" d="M225.7,158.9c0,0.2-0.2,0.4-0.4,0.4s-0.4-0.2-0.4-0.4s0.2-0.4,0.4-0.4h0C225.5,158.5,225.7,158.7,225.7,158.9z
		"/>
	<circle class="st1" cx="232.1" cy="161.7" r="0.4"/>
	<path class="st1" d="M234.9,168.9c-0.2,0-0.4-0.2-0.4-0.4s0.2-0.4,0.4-0.4s0.4,0.2,0.4,0.4v0C235.3,168.7,235.1,168.9,234.9,168.9
		C234.9,168.9,234.9,168.9,234.9,168.9z"/>
	<circle class="st1" cx="232.1" cy="175.2" r="0.4"/>
	<path class="st1" d="M224.9,178.1c0-0.2,0.2-0.4,0.4-0.4c0.2,0,0.4,0.2,0.4,0.4s-0.2,0.4-0.4,0.4c0,0,0,0,0,0
		C225.1,178.5,224.9,178.3,224.9,178.1z"/>
	<path class="st1" d="M218.2,174.9c0.2-0.2,0.4-0.2,0.6,0c0.2,0.2,0.2,0.4,0,0.6c-0.2,0.2-0.4,0.2-0.6,0
		C218.1,175.4,218.1,175.1,218.2,174.9z"/>
	<circle class="st1" cx="215.7" cy="168.5" r="0.4"/>
	<path class="st1" d="M218.8,161.4c0.2,0.2,0.2,0.4,0,0.6c0,0,0,0,0,0c-0.2,0.2-0.4,0.2-0.6,0c-0.2-0.2-0.2-0.4,0-0.6c0,0,0,0,0,0
		C218.4,161.2,218.7,161.2,218.8,161.4z"/>
	<path class="st1" d="M246.4,163h-6c-0.2,0-0.4-0.1-0.5-0.4c0-0.2,0.1-0.4,0.4-0.5c0,0,0.1,0,0.1,0h6c0.2,0,0.4,0.3,0.4,0.5
		C246.7,162.8,246.6,163,246.4,163z"/>
	<path class="st1" d="M246.4,174.8h-6c-0.2,0-0.4-0.2-0.4-0.4c0-0.2,0.2-0.4,0.4-0.4c0,0,0,0,0,0h6c0.2,0,0.4,0.2,0.4,0.4l0,0
		C246.8,174.6,246.6,174.8,246.4,174.8C246.4,174.8,246.4,174.8,246.4,174.8z"/>
	<path class="st1" d="M253.9,168.9h-11.3c-0.2,0-0.4-0.1-0.5-0.4c0-0.2,0.1-0.4,0.4-0.5c0,0,0.1,0,0.1,0h11.3c0.2,0,0.4,0.3,0.4,0.5
		C254.2,168.7,254.1,168.9,253.9,168.9z"/>
	<rect x="266.9" y="324.5" class="st0" width="6.7" height="6.7"/>
	<path class="st8" d="M274.1,331.7h-7.7V324h7.7V331.7z M267.5,330.7h5.6V325h-5.6V330.7z"/>
	<path class="st1" d="M282.1,326H276c-0.2,0-0.4-0.2-0.4-0.4c0,0,0,0,0,0c0-0.2,0.2-0.4,0.4-0.4h0h6c0.2,0,0.4,0.2,0.4,0.4v0
		C282.5,325.8,282.3,326,282.1,326z"/>
	<path class="st1" d="M284.4,330.6h-8.2c-0.3,0-0.6-0.2-0.6-0.4s0.2-0.4,0.6-0.4h8.2c0.3,0,0.6,0.2,0.6,0.4S284.7,330.6,284.4,330.6
		z"/>
	<path class="st1" d="M287.3,328.1H276c-0.2,0-0.4-0.2-0.4-0.4c0,0,0,0,0,0c0-0.2,0.2-0.4,0.4-0.4h0h11.3c0.2,0,0.4,0.2,0.4,0.4v0
		C287.7,327.9,287.5,328.1,287.3,328.1z"/>
	<rect x="120.2" y="226.5" class="st0" width="6.7" height="6.7"/>
	<path class="st8" d="M127.4,233.7h-7.7v-7.7h7.7V233.7z M120.7,232.7h5.7V227h-5.7V232.7z"/>
	<path class="st1" d="M111.8,227.9h6c0.2,0,0.4-0.2,0.4-0.4c0-0.2-0.2-0.4-0.4-0.4h-6c-0.2,0-0.4,0.2-0.4,0.4
		C111.3,227.7,111.5,227.9,111.8,227.9z"/>
	<path class="st1" d="M109.5,232.5h8.2c0.3,0,0.6-0.2,0.6-0.4s-0.2-0.4-0.6-0.4h-8.2c-0.3,0-0.6,0.2-0.6,0.4
		S109.2,232.5,109.5,232.5z"/>
	<path class="st1" d="M106.5,230.1h11.3c0.2,0,0.4-0.2,0.4-0.4c0-0.2-0.2-0.4-0.4-0.4h-11.3c-0.2,0-0.4,0.2-0.4,0.4
		C106.1,229.9,106.3,230.1,106.5,230.1z"/>
	<rect x="324" y="251.6" class="st11" width="2.1" height="89.2"/>
	<path class="st10" d="M324.8,241.8h0.5c3.4,0,6.1,2.8,6.1,6.1v8.2c0,3.4-2.8,6.1-6.1,6.1h-0.5c-3.4,0-6.1-2.8-6.1-6.1V248
		C318.7,244.6,321.4,241.8,324.8,241.8z"/>
	<path class="st11" d="M333.4,256.4l2.2,0.4c0.5,0.1,0.7-0.7,0.2-0.8l-2.2-0.4C333.1,255.6,332.9,256.3,333.4,256.4L333.4,256.4z"/>
	<path class="st11" d="M333.3,251.6c0.6-0.1,1.1-0.1,1.7-0.1c0.5,0,0.5-0.7,0-0.8c-0.6-0.1-1.3,0-1.9,0.1
		C332.6,251,332.8,251.7,333.3,251.6z"/>
	<path class="st11" d="M333.1,247.3l1.7-0.7c0.5-0.2,0.3-0.9-0.2-0.8l-1.7,0.7C332.4,246.7,332.6,247.5,333.1,247.3z"/>
	<path class="st11" d="M314,257.1c0.6-0.1,1.1-0.2,1.7-0.4c0.5-0.2,0.3-0.9-0.2-0.8c-0.5,0.2-1.1,0.3-1.7,0.4
		C313.3,256.4,313.5,257.2,314,257.1z"/>
	<path class="st11" d="M313,251.6c0.7,0,1.4,0.1,2.1,0.3c0.2,0,0.4-0.1,0.5-0.3c0-0.2-0.1-0.4-0.3-0.5c-0.8-0.2-1.5-0.3-2.3-0.4
		c-0.2,0-0.4,0.2-0.4,0.4C312.6,251.4,312.8,251.6,313,251.6L313,251.6z"/>
	<path class="st11" d="M313.7,245.2l1.7,0.5c0.5,0.2,0.7-0.6,0.2-0.8l-1.7-0.5C313.4,244.3,313.2,245,313.7,245.2z"/>
	<polygon class="st1" points="320.2,342 321.6,330 328.3,330 329.9,341.8 	"/>
	<path class="st6" d="M129.9,284.9c-0.3-1.9-1.6-6.8-4.6-5.2c-4.8,2.5,1,12-4.8,13.7c-0.3-3.8-1.1-6.4-2.8-6.2
		c-3.5,0.3-2.6,8.5-2.7,10.4s-0.2,3.7-0.2,5.6c-4.2,0.8-3.3-10.1-5.9-11.6c-3.9-2.3-4.8,2.9-4.7,5.3c0.2,4.1,1.3,9,5.1,11.1
		c1.6,0.9,3.4,1.4,5.2,1.4c-0.1,3.2,0.2,6.4,0.7,9.6 M115.3,318.9L115.3,318.9l2.3,0.1l0,0c0,0.4,0.4,0.8,0.9,0.7
		c0.4,0,0.7-0.3,0.7-0.7c0-2,1.2-11.6,1.4-19.8c2,0.1,3.9-0.4,5.5-1.6c4-2.9,4.4-8.2,3.7-12.7L115.3,318.9z"/>
	<path class="st7" d="M118.4,320.3c-0.2,0-0.5-0.1-0.7-0.2c-0.2-0.1-0.4-0.4-0.5-0.6l-1.7-0.1h-0.6l-0.1-0.4
		c-0.5-3.1-0.7-6.1-0.7-9.2c-1.8-0.1-3.5-0.6-5-1.5c-4.1-2.3-5.2-7.5-5.3-11.5c-0.1-1.6,0.3-4.9,2.1-6c1.1-0.5,2.3-0.4,3.3,0.3
		c1.2,0.7,1.7,3,2.2,5.5c0.7,3.5,1.4,6,3,6v-0.9c0.1-1.5,0.1-3,0.2-4.4c0-0.3,0-0.7,0-1.2c-0.1-3.2-0.3-9.3,3.1-9.6
		c0.5-0.1,1,0.1,1.4,0.5c1,0.8,1.6,2.6,1.8,5.6c2.2-1,2-3.4,1.9-6.3s-0.3-5.9,2.3-7.2c0.7-0.4,1.6-0.5,2.3-0.1
		c2.1,1.1,2.8,5.2,2.9,5.7l0,0c0.6,3.5,0.8,9.8-3.9,13.2c-1.6,1.1-3.4,1.7-5.4,1.7c-0.1,5.4-0.7,11.2-1,15.2c-0.2,2-0.3,3.5-0.3,4.2
		c0,0.4-0.2,0.8-0.6,1C118.9,320.1,118.7,320.2,118.4,320.3z M115.6,318.5l2.5,0.1v0.4c0,0.2,0.1,0.3,0.1,0.3c0.1,0.1,0.3,0.1,0.4,0
		c0.1-0.1,0.2-0.2,0.2-0.3c0-0.7,0.2-2.2,0.3-4.2c0.4-4,0.9-10.1,1-15.6v-0.5l0.5,0.1c1.9,0.1,3.7-0.4,5.2-1.5
		c4.3-3.1,4.1-9.1,3.5-12.3l0,0c-0.2-1.4-1-4.3-2.4-5c-0.5-0.2-1.1-0.2-1.5,0.1c-2,1.1-1.9,3.6-1.8,6.4c0.1,3,0.3,6.4-3.1,7.4
		l-0.5,0.1v-0.5c-0.3-3.8-1-5.1-1.6-5.6c-0.2-0.2-0.5-0.3-0.8-0.2c-2.6,0.2-2.4,5.9-2.3,8.7c0,0.5,0,1,0,1.3c0,1.4-0.1,2.9-0.2,4.4
		l-0.1,1.6l-0.3,0.1c-2.8,0.5-3.6-3.3-4.3-6.7c-0.5-2.2-0.9-4.4-1.8-5c-0.7-0.5-1.6-0.7-2.4-0.3c-1.3,0.8-1.7,3.6-1.6,5.2
		c0.2,3.8,1.2,8.7,4.9,10.8c1.5,0.9,3.2,1.3,5,1.3l0.5,0v0.5C115,312.4,115.2,315.4,115.6,318.5z"/>
	<path class="st8" d="M125.3,341h-16.9c-0.9,0-1.6-0.6-1.8-1.5l-3.8-19.7l1.6-0.3l3.8,19.7c0,0.1,0.1,0.2,0.2,0.1h16.9
		c0.1,0,0.2-0.1,0.2-0.1l3.8-19.7l1.6,0.3l-3.8,19.7C126.9,340.4,126.2,341,125.3,341z"/>
	<path class="st10" d="M103,313.5h28c0.5,0,0.9,0.5,0.9,1.2v4.3c0,0.6-0.4,1.2-0.9,1.2h-28c-0.5,0-0.9-0.5-0.9-1.2v-4.3
		C102.1,314,102.5,313.5,103,313.5z"/>
	<path class="st1" d="M131,320.5h-28c-0.8-0.1-1.4-0.8-1.3-1.6v-4.3c-0.1-0.8,0.5-1.6,1.3-1.6h28c0.8,0.1,1.4,0.8,1.3,1.6v4.3
		C132.4,319.7,131.8,320.4,131,320.5C131,320.5,131,320.5,131,320.5z M103,313.9c-0.2,0-0.4,0.3-0.4,0.7v4.3c0,0.4,0.2,0.7,0.4,0.7
		h28c0.2,0,0.4-0.3,0.4-0.7v-4.3c0-0.4-0.2-0.7-0.4-0.7H103z"/>
	<path class="st10" d="M131,320.5h-28c-0.8-0.1-1.3-0.8-1.2-1.5v-4.3c-0.1-0.8,0.5-1.4,1.2-1.5h28c0.8,0.1,1.3,0.8,1.2,1.5v4.3
		C132.3,319.7,131.8,320.4,131,320.5z M103,313.9c-0.2,0-0.5,0.3-0.5,0.8v4.3c0,0.5,0.3,0.8,0.5,0.8h28c0.2,0,0.5-0.3,0.5-0.8v-4.3
		c0-0.5-0.3-0.8-0.5-0.8H103z"/>
	<path class="st1" d="M131,320.9h-28c-1-0.1-1.8-1-1.7-2v-4.3c-0.1-1,0.7-1.9,1.7-2h28c1,0.1,1.8,1,1.7,2v4.3
		C132.8,319.9,132,320.8,131,320.9z M103,314.3c-0.1,0.1-0.1,0.2-0.1,0.4v4.3c0,0.1,0,0.3,0.1,0.4h28c0,0,0.1-0.1,0.1-0.4v-4.3
		c0-0.1,0-0.3-0.1-0.4L103,314.3z"/>
	<path class="st7" d="M106,296.8l1.4,0.2c0.5,0.1,0.5-0.7,0-0.8L106,296C105.5,295.9,105.5,296.7,106,296.8L106,296.8z"/>
	<path class="st7" d="M108.1,290.6v0.7c0,0.2,0.2,0.4,0.4,0.4c0.2,0,0.4-0.2,0.4-0.4v-0.7c0-0.2-0.2-0.4-0.4-0.4
		C108.2,290.2,108.1,290.4,108.1,290.6z"/>
	<path class="st7" d="M110.7,297.8l1-0.6c0.2-0.1,0.2-0.4,0.1-0.5c-0.1-0.1-0.3-0.2-0.5-0.1l-1,0.6c-0.2,0.1-0.2,0.4-0.1,0.5
		C110.4,297.8,110.6,297.8,110.7,297.8z"/>
	<path class="st7" d="M106.8,306.7l1.2-0.9c0.4-0.3,0-1-0.4-0.7l-1.2,0.9C105.9,306.3,106.3,307,106.8,306.7z"/>
	<path class="st7" d="M103.8,300l0.9,0.3c0.5,0.2,0.7-0.6,0.2-0.8l-0.9-0.3C103.6,299.1,103.4,299.8,103.8,300z"/>
	<path class="st7" d="M109.5,303.6c0.2,0,0.3,0.1,0.4,0.2c0.3,0.4,0.9-0.2,0.6-0.5c-0.3-0.3-0.6-0.5-1-0.5
		C108.9,302.9,108.9,303.6,109.5,303.6L109.5,303.6z"/>
	<path class="st7" d="M111.2,307.3c-0.1,0.5,0,1,0.2,1.5c0.2,0.5,0.9,0.1,0.7-0.4c-0.1-0.3-0.2-0.6-0.1-0.9
		C112,307,111.3,306.8,111.2,307.3L111.2,307.3z"/>
	<path class="st7" d="M115.2,307.4l0.7,0.2c0.2,0,0.4-0.1,0.5-0.3c0-0.2-0.1-0.4-0.3-0.5l-0.7-0.2c-0.2,0-0.4,0.1-0.4,0.3
		C115,307.2,115.1,307.4,115.2,307.4z"/>
	<path class="st7" d="M117.7,299.8c0,0.4,0.1,0.9,0.5,1.1c0.4,0.3,0.9-0.2,0.6-0.5c-0.2-0.1-0.3-0.4-0.2-0.6
		C118.5,299.3,117.8,299.3,117.7,299.8L117.7,299.8z"/>
	<path class="st7" d="M116.7,294.2c-0.2,0.3-0.3,0.7-0.2,1c0.1,0.5,0.8,0.3,0.8-0.2c0-0.1,0-0.3,0.1-0.4
		C117.7,294.2,117,293.8,116.7,294.2z"/>
	<path class="st7" d="M121,296.5v0.7c0,0.2,0.2,0.4,0.4,0.4c0.2,0,0.4-0.2,0.4-0.4v-0.7c0-0.2-0.2-0.4-0.4-0.4
		C121.2,296.1,121,296.3,121,296.5z"/>
	<path class="st7" d="M113.8,295.3l0.5,0.3c0.4,0.3,0.8-0.4,0.4-0.7l-0.5-0.3C113.7,294.3,113.4,295,113.8,295.3z"/>
	<path class="st7" d="M115.1,288.8c0.1,0.2,0.2,0.4,0.2,0.6c0,0.5,0.8,0.5,0.8,0c0-0.4-0.2-0.8-0.5-1.1
		C115.3,287.9,114.7,288.5,115.1,288.8L115.1,288.8z"/>
	<path class="st7" d="M117,286.5v1c0,0.2,0.2,0.4,0.4,0.4c0.2,0,0.4-0.2,0.4-0.4v-1c0-0.2-0.2-0.4-0.4-0.4
		C117.2,286.1,117,286.3,117,286.5z"/>
	<path class="st7" d="M121.8,291l0.3,0.4c0.3,0.4,0.9-0.2,0.6-0.5l-0.3-0.4C122.1,290.1,121.5,290.7,121.8,291z"/>
	<path class="st7" d="M122.6,286.4l1,0.1c0.5,0,0.5-0.8,0-0.8l-1-0.1C122.1,285.6,122.1,286.4,122.6,286.4z"/>
	<path class="st7" d="M123.7,280.2l0.7,0.7c0.2,0.1,0.4,0.1,0.5,0c0.1-0.1,0.1-0.4,0-0.5l-0.7-0.7c-0.2-0.1-0.4-0.1-0.5,0
		C123.6,279.8,123.6,280,123.7,280.2z"/>
	<path class="st7" d="M126.7,278.2v1.2c0,0.2,0.2,0.4,0.4,0.4c0.2,0,0.4-0.2,0.4-0.4v-1.2c0-0.2-0.2-0.4-0.4-0.4
		C126.9,277.8,126.7,278,126.7,278.2z"/>
	<path class="st7" d="M128.1,285.5l0.3-0.5c0.3-0.4-0.4-0.8-0.7-0.4l-0.3,0.5C127.2,285.5,127.9,285.9,128.1,285.5z"/>
	<path class="st7" d="M125.5,293.1l0.9-0.3c0.5-0.2,0.3-0.9-0.2-0.8l-0.9,0.3C124.8,292.5,125,293.3,125.5,293.1z"/>
	<path class="st7" d="M128.9,292l0.9-0.2c0.5-0.1,0.3-0.9-0.2-0.8l-0.9,0.2C128.2,291.4,128.4,292.1,128.9,292L128.9,292z"/>
	<path class="st7" d="M126.7,295.6v0.2c0,0.2,0.2,0.4,0.4,0.4c0.2,0,0.4-0.2,0.4-0.4v-0.2c0-0.2-0.2-0.4-0.4-0.4
		C126.9,295.3,126.7,295.4,126.7,295.6z"/>
	<path class="st7" d="M120,307.5l0.5-0.3c0.4-0.3,0-1-0.4-0.7l-0.5,0.3C119.2,307.2,119.6,307.8,120,307.5z"/>
	<path class="st7" d="M119.6,310.4c0.3-0.3,0.7-0.5,1.1-0.6c0.5-0.1,0.3-0.9-0.2-0.8c-0.5,0.1-1,0.4-1.4,0.8
		C118.7,310.2,119.2,310.8,119.6,310.4L119.6,310.4z"/>
	<path class="st7" d="M116.4,310.9l0.2,0.3c0.2,0.5,0.9,0,0.7-0.4l-0.2-0.4C116.8,310,116.1,310.4,116.4,310.9L116.4,310.9z"/>
	<path class="st7" d="M113.4,311.7c0.4,0.2,0.9,0.3,1.3,0.2c0.5-0.1,0.3-0.9-0.2-0.8c-0.3,0.1-0.5,0-0.8-0.1
		C113.4,310.8,113,311.5,113.4,311.7L113.4,311.7z"/>
	<path class="st7" d="M119.8,304.4l1.6-0.2c0.5-0.1,0.5-0.8,0-0.8l-1.6,0.2C119.4,303.6,119.3,304.4,119.8,304.4z"/>
	<path class="st12" d="M189.5,270.3l25.1-22.7c1.2-1.1-0.6-2.9-1.8-1.8l-25.1,22.7C186.4,269.6,188.3,271.4,189.5,270.3z"/>
	<path class="st12" d="M217.9,281.8l25.1-22.7c1.2-1.1-0.6-3-1.8-1.8L216.1,280C214.8,281.1,216.7,283,217.9,281.8L217.9,281.8z"/>
	<path class="st12" d="M187.1,290.4l52.6-51.3c1.2-1.2-0.6-3-1.8-1.8l-52.6,51.3C184,289.8,185.9,291.6,187.1,290.4z"/>
	<rect x="266.4" y="130.8" class="st8" width="1.1" height="72.4"/>
	<path class="st8" d="M271.5,203.2c0,2.5-2.1,4.6-4.6,4.6s-4.6-2.1-4.6-4.6c0-2.5,2.1-4.6,4.6-4.6S271.5,200.7,271.5,203.2
		L271.5,203.2z"/>
	<path class="st8" d="M267,218.7c-1,0-1.9-0.4-2.7-1.1c-0.8-0.8-1.2-1.9-1.1-3c0-0.3,0.3-0.6,0.6-0.6c0.3,0,0.6,0.3,0.6,0.6
		c-0.1,0.8,0.2,1.6,0.7,2.1c0.5,0.5,1.1,0.7,1.8,0.8c1.7,0,3.1-1.4,3.1-3.1s-1.4-3.1-3.1-3.1c-0.3,0-0.6-0.3-0.6-0.6c0,0,0,0,0,0
		v-3.4c0-0.3,0.2-0.6,0.5-0.7c0.3,0,0.6,0.2,0.7,0.5c0,0.1,0,0.1,0,0.2v2.8c2.4,0.3,4,2.5,3.7,4.9C271,217.1,269.2,218.7,267,218.7
		L267,218.7z"/>
	<path class="st8" d="M242.9,221.5c-0.2,0-0.4-0.2-0.5-0.5c0-0.3,0.2-0.6,0.5-0.6l24.9-3.7c0.3,0,0.6,0.2,0.6,0.5
		c0,0.3-0.2,0.6-0.5,0.6l-24.9,3.7C243,221.5,242.9,221.5,242.9,221.5z"/>
	<path class="st8" d="M290.6,229.8h-0.2l-22.9-12c-0.3-0.1-0.4-0.5-0.2-0.8c0.1-0.3,0.5-0.4,0.8-0.2c0,0,0,0,0,0l22.9,12
		c0.3,0.1,0.4,0.5,0.2,0.8c0,0,0,0,0,0C291.1,229.7,290.9,229.8,290.6,229.8z"/>
	<path class="st0" d="M235.9,220.3l61,10.6c3.2,0.6,5.3,3.6,4.8,6.8l-6.1,35.1c-0.6,3.2-3.6,5.3-6.8,4.8l-61-10.6
		c-3.2-0.6-5.3-3.6-4.8-6.8l6.1-35.1C229.7,221.9,232.7,219.8,235.9,220.3z"/>
	<path class="st8" d="M289.6,278.4c-0.4,0-0.8,0-1.2-0.1l-60.5-10.5c-3.7-0.6-6.2-4.2-5.6-7.9c0,0,0,0,0,0l6-34.7
		c0.7-3.7,4.2-6.2,7.9-5.6l60.5,10.5c3.7,0.6,6.2,4.2,5.6,7.9c0,0,0,0,0,0l-6,34.7C295.8,276,292.9,278.4,289.6,278.4z M235.1,221
		c-2.6,0-4.8,1.9-5.2,4.4l-6,34.7c-0.5,2.9,1.4,5.6,4.3,6.1c0,0,0,0,0.1,0l60.5,10.5c2.9,0.5,5.6-1.4,6.1-4.3l6-34.7
		c0.5-2.9-1.4-5.6-4.3-6.1c0,0,0,0,0,0L236,221.1C235.7,221.1,235.4,221,235.1,221z"/>
	<path class="st10" d="M236.4,224.1l58.8,10.2c2,0.4,3.4,2.3,3.1,4.3l-5.6,32c-0.4,2-2.3,3.4-4.3,3.1l-58.8-10.2
		c-2-0.4-3.4-2.3-3.1-4.3l5.6-32C232.4,225.1,234.3,223.8,236.4,224.1z"/>
	<path class="st1" d="M288.9,274.6c-0.3,0-0.5,0-0.8-0.1l-58.5-10.2c-1.2-0.2-2.3-0.9-3-1.9c-0.7-1-1-2.3-0.8-3.5l5.5-31.8
		c0.4-2.5,2.9-4.2,5.4-3.8c0,0,0,0,0,0l58.5,10.2c2.5,0.4,4.2,2.9,3.8,5.4l-5.5,31.8C293.1,272.9,291.1,274.6,288.9,274.6
		L288.9,274.6z M288.3,273c0.8,0.1,1.7,0,2.3-0.5c0.7-0.5,1.1-1.2,1.3-2l5.5-31.8c0.3-1.7-0.8-3.3-2.5-3.6c0,0,0,0,0,0l-58.5-10.2
		c-1.7-0.3-3.3,0.8-3.6,2.5l-5.5,31.8c-0.3,1.7,0.8,3.3,2.5,3.6c0,0,0,0,0,0L288.3,273z"/>
	<polygon class="st0" points="260.4,268.9 275.6,255 284,273 	"/>
	<path class="st8" d="M284.9,273.7l-25.6-4.5l16.5-15.1L284.9,273.7z M261.5,268.6l21.6,3.8l-7.7-16.5L261.5,268.6z"/>
	<polygon class="st0" points="230.3,263.7 257.3,239 272.2,271 	"/>
	<path class="st8" d="M273.1,271.7l-43.9-7.7l28.3-25.9L273.1,271.7z M231.5,263.4l39.9,6.9l-14.2-30.5L231.5,263.4z"/>
	<path class="st0" d="M289.4,243.7c-0.4,2.1-2.3,3.4-4.4,3.1c-2.1-0.4-3.4-2.3-3.1-4.4c0.4-2.1,2.3-3.4,4.4-3.1
		C288.4,239.7,289.7,241.6,289.4,243.7C289.4,243.7,289.4,243.7,289.4,243.7z"/>
	<path class="st8" d="M285.7,247.3c-0.2,0-0.5,0-0.7-0.1c-2.3-0.4-3.9-2.6-3.5-5c0,0,0,0,0,0c0.2-1.1,0.8-2.1,1.8-2.8
		c1.9-1.4,4.6-0.9,6,1c0,0,0,0,0,0c0.7,0.9,0.9,2.1,0.7,3.2c-0.2,1.1-0.8,2.1-1.8,2.8C287.4,247,286.6,247.3,285.7,247.3z
		 M285.7,239.8c-1.8,0-3.3,1.5-3.3,3.3c0,0.7,0.2,1.3,0.6,1.9c1,1.5,3.1,1.8,4.5,0.8c0.7-0.5,1.2-1.2,1.3-2.1l0,0
		c0.3-1.8-0.9-3.4-2.6-3.8C286,239.8,285.8,239.8,285.7,239.8L285.7,239.8z"/>
	<rect x="257" y="128.4" class="st10" width="56.5" height="6.2"/>
	<path class="st8" d="M362.7,257h-18.8V91.1h18.8V257z M345.8,255.1h15.1V92.9h-15.1V255.1z"/>
	<path class="st8" d="M362.5,109.3h-18.3V91h18.3V109.3z M346,107.4h14.5V92.9H346V107.4z"/>
	
		<rect x="352.4" y="88.5" transform="matrix(0.7071 -0.7071 0.7071 0.7071 32.6849 279.1505)" class="st8" width="1.9" height="23.2"/>
	
		<rect x="341.7" y="99.2" transform="matrix(0.7071 -0.7071 0.7071 0.7071 32.6828 279.1456)" class="st8" width="23.2" height="1.9"/>
	<path class="st8" d="M362.5,125.7h-18.3v-18.3h18.3V125.7z M346,123.8h14.5v-14.5H346V123.8z"/>
	
		<rect x="352.4" y="104.9" transform="matrix(0.7071 -0.7071 0.7071 0.7071 21.0797 283.9605)" class="st8" width="1.9" height="23.2"/>
	
		<rect x="341.7" y="115.6" transform="matrix(0.7071 -0.7071 0.7071 0.7071 21.0747 283.9626)" class="st8" width="23.2" height="1.9"/>
	<path class="st8" d="M362.5,142.1h-18.3v-18.3h18.3V142.1z M346,140.2h14.5v-14.5H346V140.2z"/>
	
		<rect x="352.4" y="121.4" transform="matrix(0.7071 -0.7071 0.7071 0.7071 9.4688 288.7705)" class="st8" width="1.9" height="23.2"/>
	
		<rect x="341.7" y="132" transform="matrix(0.7071 -0.7071 0.7071 0.7071 9.4625 288.7755)" class="st8" width="23.2" height="1.9"/>
	<path class="st8" d="M362.5,158.5h-18.3v-18.3h18.3V158.5z M346,156.6h14.5v-14.5H346V156.6z"/>
	
		<rect x="352.4" y="137.8" transform="matrix(0.7071 -0.7071 0.7071 0.7071 -2.1393 293.5735)" class="st8" width="1.9" height="23.2"/>
	
		<rect x="341.7" y="148.4" transform="matrix(0.7071 -0.7071 0.7071 0.7071 -2.1443 293.5756)" class="st8" width="23.2" height="1.9"/>
	<path class="st8" d="M362.5,174.9h-18.3v-18.3h18.3V174.9z M346,173.1h14.5v-14.5H346V173.1z"/>
	
		<rect x="352.4" y="154.2" transform="matrix(0.7071 -0.7071 0.7071 0.7071 -13.7403 298.3876)" class="st8" width="1.9" height="23.2"/>
	
		<rect x="341.7" y="164.9" transform="matrix(0.7071 -0.7071 0.7071 0.7071 -13.7565 298.3885)" class="st8" width="23.2" height="1.9"/>
	<path class="st8" d="M362.5,191.3h-18.3v-18.3h18.3V191.3z M346,189.5h14.5v-14.5H346V189.5z"/>
	
		<rect x="352.4" y="170.6" transform="matrix(0.7071 -0.7071 0.7071 0.7071 -25.3483 303.1906)" class="st8" width="1.9" height="23.2"/>
	
		<rect x="341.7" y="181.3" transform="matrix(0.7071 -0.7071 0.7071 0.7071 -25.3675 303.1985)" class="st8" width="23.2" height="1.9"/>
	<path class="st8" d="M362.5,207.8h-18.3v-18.3h18.3V207.8z M346,205.9h14.5v-14.5H346V205.9z"/>
	
		<rect x="352.4" y="187" transform="matrix(0.7071 -0.7071 0.7071 0.7071 -36.9564 307.9935)" class="st8" width="1.9" height="23.2"/>
	
		<rect x="341.7" y="197.7" transform="matrix(0.7071 -0.7071 0.7071 0.7071 -36.9655 308.0056)" class="st8" width="23.2" height="1.9"/>
	<path class="st8" d="M362.5,224.2h-18.3v-18.3h18.3V224.2z M346,222.3h14.5v-14.5H346V222.3z"/>
	
		<rect x="352.4" y="203.4" transform="matrix(0.7071 -0.7071 0.7071 0.7071 -48.5644 312.8105)" class="st8" width="1.9" height="23.2"/>
	
		<rect x="341.7" y="214.1" transform="matrix(0.7071 -0.7071 0.7071 0.7071 -48.5736 312.8085)" class="st8" width="23.2" height="1.9"/>
	<path class="st8" d="M362.5,240.6h-18.3v-18.3h18.3V240.6z M346,238.7h14.5v-14.5H346V238.7z"/>
	
		<rect x="352.4" y="219.8" transform="matrix(0.7071 -0.7071 0.7071 0.7071 -60.1654 317.6106)" class="st8" width="1.9" height="23.2"/>
	
		<rect x="341.7" y="230.5" transform="matrix(0.7071 -0.7071 0.7071 0.7071 -60.1846 317.6185)" class="st8" width="23.2" height="1.9"/>
	<path class="st8" d="M362.5,257h-18.3v-18.3h18.3V257z M346,255.1h14.5v-14.5H346V255.1z"/>
	
		<rect x="352.4" y="236.2" transform="matrix(0.7071 -0.7071 0.7071 0.7071 -71.7764 322.4206)" class="st8" width="1.9" height="23.2"/>
	
		<rect x="341.7" y="246.9" transform="matrix(0.7072 -0.707 0.707 0.7072 -71.7865 322.3418)" class="st8" width="23.2" height="1.9"/>
	<path class="st8" d="M395.1,125.4h-18.3v-18.3h18.3V125.4z M378.7,123.6h14.5V109h-14.5L378.7,123.6z"/>
	
		<rect x="374.4" y="115.4" transform="matrix(0.707 -0.7072 0.7072 0.707 30.8439 307.0434)" class="st8" width="23.2" height="1.9"/>
	
		<rect x="385" y="104.7" transform="matrix(0.7071 -0.7071 0.7071 0.7071 30.8193 306.9864)" class="st8" width="1.9" height="23.2"/>
	<path class="st8" d="M378.7,125.4h-18.3v-18.3h18.3V125.4z M362.3,123.6h14.5V109h-14.5V123.6z"/>
	
		<rect x="357.9" y="115.4" transform="matrix(0.707 -0.7072 0.7072 0.707 26.0381 295.4353)" class="st8" width="23.2" height="1.9"/>
	
		<rect x="368.6" y="104.7" transform="matrix(0.7071 -0.7071 0.7071 0.7071 26.0093 295.3813)" class="st8" width="1.9" height="23.2"/>
	<path class="st8" d="M362.3,125.4H344v-18.3h18.3V125.4z M345.9,123.6h14.5V109h-14.5V123.6z"/>
	<path class="st8" d="M345.9,125.4h-18.3v-18.3h18.3V125.4z M329.5,123.6H344V109h-14.5V123.6z"/>
	
		<rect x="325.1" y="115.3" transform="matrix(0.7071 -0.7071 0.7071 0.7071 16.3943 272.1572)" class="st8" width="23.2" height="1.9"/>
	
		<rect x="335.8" y="104.7" transform="matrix(0.7071 -0.7071 0.7071 0.7071 16.3964 272.1622)" class="st8" width="1.9" height="23.2"/>
	<path class="st8" d="M329.5,125.4h-18.3v-18.3h18.3L329.5,125.4z M313,123.6h14.5V109H313V123.6z"/>
	
		<rect x="308.7" y="115.4" transform="matrix(0.7071 -0.7071 0.7071 0.7071 11.5872 260.5591)" class="st8" width="23.2" height="1.9"/>
	
		<rect x="319.4" y="104.7" transform="matrix(0.7071 -0.7071 0.7071 0.7071 11.5822 260.5612)" class="st8" width="1.9" height="23.2"/>
	<path class="st8" d="M313,125.4h-18.3v-18.3H313V125.4z M296.6,123.6h14.5V109h-14.5L296.6,123.6z"/>
	<path class="st8" d="M295.7,125.4h-16.4c-0.4,0-0.7-0.2-0.9-0.6c-0.1-0.3-0.1-0.7,0.2-1l16.4-16.4l1.3,1.3l-14.8,14.8h13.8
		l16.1-16.1l1.3,1.3l-16.4,16.4C296.2,125.3,295.9,125.4,295.7,125.4z"/>
	
		<rect x="303" y="104.7" transform="matrix(0.7071 -0.7071 0.7071 0.7071 6.7793 248.9532)" class="st8" width="1.9" height="23.2"/>
	<path class="st8" d="M362.7,275.3h-18.8V257h18.8V275.3z M345.9,273.4h14.9v-14.5h-14.9L345.9,273.4z"/>
	<polygon class="st8" points="361.1,275 344.2,258.6 345.6,257.3 362.5,273.7 	"/>
	<polygon class="st8" points="345.6,275 344.2,273.7 361.1,257.3 362.5,258.6 	"/>
	<path class="st8" d="M362.7,340.9h-18.8v-18.3h18.8V340.9z M345.9,339h14.9v-14.5h-14.9L345.9,339z"/>
	<polygon class="st8" points="361.1,340.7 344.2,324.2 345.6,322.9 362.5,339.3 	"/>
	<polygon class="st8" points="345.6,340.7 344.2,339.3 361.1,322.9 362.5,324.2 	"/>
	<path class="st8" d="M362.7,290.1h-18.8v-18.3h18.8V290.1z M345.9,288.2h14.9v-14.5h-14.9L345.9,288.2z"/>
	<polygon class="st8" points="361.1,289.9 344.2,273.4 345.6,272.1 362.5,288.5 	"/>
	<polygon class="st8" points="345.6,289.9 344.2,288.5 361.1,272.1 362.5,273.4 	"/>
	<path class="st8" d="M362.7,306.5h-18.8v-18.3h18.8V306.5z M345.9,304.7h14.9v-14.5h-14.9L345.9,304.7z"/>
	<polygon class="st8" points="361.1,306.3 344.2,289.9 345.6,288.5 362.5,304.9 	"/>
	<polygon class="st8" points="345.6,306.3 344.2,304.9 361.1,288.5 362.5,289.9 	"/>
	<path class="st8" d="M362.7,323h-18.8v-18.3h18.8V323z M345.9,321.1h14.9v-14.6h-14.9L345.9,321.1z"/>
	<polygon class="st8" points="361.1,322.7 344.2,306.3 345.6,304.9 362.5,321.4 	"/>
	<polygon class="st8" points="345.6,322.7 344.2,321.4 361.1,304.9 362.5,306.3 	"/>
	<path class="st1" d="M152.9,190.5c0.9-0.1,1.5-0.8,1.4-1.7c-0.1-0.8-0.7-1.4-1.4-1.4c-0.9,0.1-1.5,0.8-1.4,1.7
		C151.5,189.9,152.1,190.5,152.9,190.5z"/>
	<path class="st1" d="M321.6,158c0.9-0.1,1.5-0.8,1.4-1.7c-0.1-0.8-0.7-1.4-1.4-1.4c-0.9,0.1-1.5,0.8-1.4,1.7
		C320.2,157.3,320.8,157.9,321.6,158z"/>
	<path class="st1" d="M391.4,269.4h0.7c0.9,0.1,1.6-0.6,1.7-1.4c0.1-0.9-0.6-1.6-1.4-1.7c-0.1,0-0.2,0-0.2,0h-0.7
		c-0.9-0.1-1.6,0.6-1.7,1.4c-0.1,0.9,0.6,1.6,1.4,1.7C391.2,269.4,391.3,269.4,391.4,269.4z"/>
	<path class="st1" d="M91.3,292.2c0.9,0,1.6-0.7,1.6-1.6c0-0.9-0.7-1.6-1.6-1.6c-0.9,0-1.6,0.7-1.6,1.6
		C89.8,291.5,90.5,292.2,91.3,292.2z"/>
	<path class="st1" d="M240,142.8c0.9-0.1,1.5-0.8,1.4-1.7c-0.1-0.8-0.7-1.4-1.4-1.4c-0.9,0.1-1.5,0.8-1.4,1.7
		C238.6,142.2,239.2,142.8,240,142.8z"/>
	<text transform="matrix(1 0 0 1 166.9 475.72)" class="st8 st4 st13">~ Gokulsundar Sundararaj</text>
</g>
</svg>
