<?xml version="1.0" encoding="utf-8"?>
<!-- Generator: Adobe Illustrator 25.2.0, SVG Export Plug-In . SVG Version: 6.00 Build 0)  -->
<svg version="1.1" id="Layer_1" xmlns="http://www.w3.org/2000/svg" xmlns:xlink="http://www.w3.org/1999/xlink" x="0px" y="0px"
	 viewBox="0 0 1080 1080" style="enable-background:new 0 0 1080 1080;" xml:space="preserve">
<style type="text/css">
	.st0{fill-rule:evenodd;clip-rule:evenodd;fill:#1B9FFE;}
</style>
<path class="st0" d="M539.7,176.9c89.8,0,162.7,72.9,162.7,162.7s-72.9,162.7-162.7,162.7S377,429.4,377,339.6
	S449.9,176.9,539.7,176.9z M539.7,14.2C719.2,14.2,865,160,865,339.6S719.2,665,539.7,665S214.3,519.2,214.3,339.6
	S360.1,14.2,539.7,14.2z"/>
<g>
	<path class="st0" d="M702.2,748.6V95.8c0-45.2,36.6-81.8,81.8-81.8l0,0c45.1,0,81.8,36.6,81.8,81.8v567l-0.7,87.4l-0.1,0.1
		C859.8,925.4,716,1066,539.7,1066c-174.5,0-317-137.6-325-310.1c-0.2-2-0.2-4.1-0.2-6.2v-0.2c0-0.8-0.1-1.6-0.1-2.3h0.1
		c1.5-44.9,39.1-80.2,84-78.7c43.5,1.4,78.2,36.8,78.7,80.3c4.2,86,75.4,154.6,162.5,154.6S698,834.7,702.2,748.6z"/>
</g>
</svg>
